{
    "patcher": {
        "fileversion": 1,
        "appversion": {
            "major": 9,
            "minor": 1,
            "revision": 4,
            "architecture": "x64",
            "modernui": 1
        },
        "classnamespace": "box",
        "rect": [ 220.0, 278.0, 823.0, 449.0 ],
        "subpatcher_template": "BOOK",
        "integercoordinates": 1,
        "boxes": [
            {
                "box": {
                    "id": "obj-7",
                    "maxclass": "comment",
                    "numinlets": 1,
                    "numoutlets": 0,
                    "patching_rect": [ 506.0, 3.0, 223.0, 20.0 ],
                    "text": "More about maths (not in the book):"
                }
            },
            {
                "box": {
                    "id": "obj-6",
                    "linecount": 14,
                    "maxclass": "comment",
                    "numinlets": 1,
                    "numoutlets": 0,
                    "patching_rect": [ 505.0, 191.0, 152.0, 194.0 ],
                    "text": "Creating a new maths object:\n1. Unlock the patch\n2. Type the letter 'n' (for new object)\n3. Type the symbols associated with the maths operation you want to use (i.e., + for addition, - for subtraction, * for multiplication, / for division)\n4. Hit the Return key (on a Mac, or Enter on PC)"
                }
            },
            {
                "box": {
                    "id": "obj-5",
                    "linecount": 16,
                    "maxclass": "comment",
                    "numinlets": 1,
                    "numoutlets": 0,
                    "patching_rect": [ 660.0, 113.0, 154.0, 221.0 ],
                    "text": "Changing the look of a maths object:\n1. Unlock the patch\n2. Select the comment\n3. Hit the 'i' button on the right side of the toolbar (alternatively, hit CMD + i (on a Mac, CTL + i on a PC))\n4. In this screen, you will find the maths object's \"attributes\" i.e., things you can change about the way it looks or behaves (these attributes only apply to this particular comment object)"
                }
            },
            {
                "box": {
                    "id": "obj-8",
                    "linecount": 6,
                    "maxclass": "comment",
                    "numinlets": 1,
                    "numoutlets": 0,
                    "patching_rect": [ 660.0, 22.0, 153.0, 87.0 ],
                    "text": "Important takeaway:\nYou can use these maths objects to complete simple mathematical functions and also interact with your user and their data."
                }
            },
            {
                "box": {
                    "id": "obj-12",
                    "linecount": 12,
                    "maxclass": "comment",
                    "numinlets": 1,
                    "numoutlets": 0,
                    "patching_rect": [ 506.0, 22.0, 153.0, 167.0 ],
                    "text": "How to interact with maths objects:\n1. Click inside one of the number objects and drag the number up or down (alternatively, just type into the objects to change the number)\n2. Objects without a graphic user interface (GUI, e.g., the + object) cannot be interacted with."
                }
            },
            {
                "box": {
                    "bubble": 1,
                    "bubble_bgcolor": [ 1.0, 1.0, 1.0, 1.0 ],
                    "bubbleside": 3,
                    "id": "obj-24",
                    "maxclass": "comment",
                    "numinlets": 1,
                    "numoutlets": 0,
                    "patching_rect": [ 92.0, 215.0, 95.0, 24.0 ],
                    "text": "(has no GUI)",
                    "textcolor": [ 0.0, 0.0, 0.0, 1.0 ]
                }
            },
            {
                "box": {
                    "bubble": 1,
                    "bubble_bgcolor": [ 1.0, 1.0, 1.0, 1.0 ],
                    "id": "obj-23",
                    "maxclass": "comment",
                    "numinlets": 1,
                    "numoutlets": 0,
                    "patching_rect": [ 264.0, 166.0, 82.0, 24.0 ],
                    "text": "(has GUI)",
                    "textcolor": [ 0.0, 0.0, 0.0, 1.0 ]
                }
            },
            {
                "box": {
                    "fontname": "Arial Bold",
                    "fontsize": 24.0,
                    "id": "obj-167",
                    "linecount": 2,
                    "maxclass": "comment",
                    "numinlets": 1,
                    "numoutlets": 0,
                    "patching_rect": [ 13.0, 8.0, 326.0, 60.0 ],
                    "text": "SIMPLE OBJECTS THAT PERFORM SIMPLE MATHS",
                    "textcolor": [ 0.0, 0.0, 0.0, 1.0 ]
                }
            },
            {
                "box": {
                    "bubble": 1,
                    "bubble_bgcolor": [ 1.0, 1.0, 1.0, 1.0 ],
                    "bubblepoint": 0.91,
                    "bubbleside": 2,
                    "id": "obj-22",
                    "linecount": 4,
                    "maxclass": "comment",
                    "numinlets": 1,
                    "numoutlets": 0,
                    "patching_rect": [ 248.0, 326.0, 93.0, 79.0 ],
                    "text": "the '*' object, for multiplying one integer by another",
                    "textcolor": [ 0.0, 0.0, 0.0, 1.0 ]
                }
            },
            {
                "box": {
                    "bubble": 1,
                    "bubble_bgcolor": [ 1.0, 1.0, 1.0, 1.0 ],
                    "bubblepoint": 0.91,
                    "bubbleside": 2,
                    "id": "obj-21",
                    "linecount": 4,
                    "maxclass": "comment",
                    "numinlets": 1,
                    "numoutlets": 0,
                    "patching_rect": [ 149.0, 326.0, 91.0, 79.0 ],
                    "text": "the '/' object, for dividing one integer by another",
                    "textcolor": [ 0.0, 0.0, 0.0, 1.0 ]
                }
            },
            {
                "box": {
                    "bubble": 1,
                    "bubble_bgcolor": [ 1.0, 1.0, 1.0, 1.0 ],
                    "bubblepoint": 0.91,
                    "bubbleside": 2,
                    "id": "obj-20",
                    "linecount": 4,
                    "maxclass": "comment",
                    "numinlets": 1,
                    "numoutlets": 0,
                    "patching_rect": [ 45.0, 326.0, 98.0, 79.0 ],
                    "text": "the '-' object, for subtracting one integer from another",
                    "textcolor": [ 0.0, 0.0, 0.0, 1.0 ]
                }
            },
            {
                "box": {
                    "bubble": 1,
                    "bubble_bgcolor": [ 1.0, 1.0, 1.0, 1.0 ],
                    "bubblepoint": 0.1,
                    "bubbleside": 2,
                    "id": "obj-18",
                    "linecount": 5,
                    "maxclass": "comment",
                    "numinlets": 1,
                    "numoutlets": 0,
                    "patching_rect": [ 222.0, 70.0, 72.0, 93.0 ],
                    "text": "a number object, which stores an integer",
                    "textcolor": [ 0.0, 0.0, 0.0, 1.0 ]
                }
            },
            {
                "box": {
                    "bubble": 1,
                    "bubble_bgcolor": [ 1.0, 1.0, 1.0, 1.0 ],
                    "id": "obj-17",
                    "linecount": 5,
                    "maxclass": "comment",
                    "numinlets": 1,
                    "numoutlets": 0,
                    "patching_rect": [ 242.0, 239.0, 98.0, 78.0 ],
                    "text": "a number object, which shows the result of the calculation",
                    "textcolor": [ 0.0, 0.0, 0.0, 1.0 ]
                }
            },
            {
                "box": {
                    "bubble": 1,
                    "bubble_bgcolor": [ 1.0, 1.0, 1.0, 1.0 ],
                    "bubbleside": 3,
                    "id": "obj-16",
                    "maxclass": "comment",
                    "numinlets": 1,
                    "numoutlets": 0,
                    "patching_rect": [ 13.0, 190.0, 162.0, 24.0 ],
                    "text": "connection to the left inlet",
                    "textcolor": [ 0.0, 0.0, 0.0, 1.0 ]
                }
            },
            {
                "box": {
                    "bubble": 1,
                    "bubble_bgcolor": [ 1.0, 1.0, 1.0, 1.0 ],
                    "id": "obj-15",
                    "maxclass": "comment",
                    "numinlets": 1,
                    "numoutlets": 0,
                    "patching_rect": [ 222.0, 190.0, 169.0, 24.0 ],
                    "text": "connection to the right inlet",
                    "textcolor": [ 0.0, 0.0, 0.0, 1.0 ]
                }
            },
            {
                "box": {
                    "bubble": 1,
                    "bubble_bgcolor": [ 1.0, 1.0, 1.0, 1.0 ],
                    "id": "obj-14",
                    "maxclass": "comment",
                    "numinlets": 1,
                    "numoutlets": 0,
                    "patching_rect": [ 222.0, 215.0, 273.0, 24.0 ],
                    "text": "the '+' object, for adding one integer to another",
                    "textcolor": [ 0.0, 0.0, 0.0, 1.0 ]
                }
            },
            {
                "box": {
                    "bubble": 1,
                    "bubble_bgcolor": [ 1.0, 1.0, 1.0, 1.0 ],
                    "bubblepoint": 0.91,
                    "bubbleside": 2,
                    "id": "obj-13",
                    "linecount": 5,
                    "maxclass": "comment",
                    "numinlets": 1,
                    "numoutlets": 0,
                    "patching_rect": [ 103.0, 70.0, 72.0, 93.0 ],
                    "text": "a number object, which stores an integer",
                    "textcolor": [ 0.0, 0.0, 0.0, 1.0 ]
                }
            },
            {
                "box": {
                    "bgcolor": [ 1.0, 1.0, 1.0, 1.0 ],
                    "id": "obj-11",
                    "maxclass": "number",
                    "numinlets": 1,
                    "numoutlets": 2,
                    "outlettype": [ "", "bang" ],
                    "parameter_enable": 0,
                    "patching_rect": [ 190.0, 267.0, 50.0, 22.0 ],
                    "textcolor": [ 0.0, 0.0, 0.0, 1.0 ]
                }
            },
            {
                "box": {
                    "bgcolor": [ 1.0, 1.0, 1.0, 1.0 ],
                    "id": "obj-10",
                    "maxclass": "number",
                    "numinlets": 1,
                    "numoutlets": 2,
                    "outlettype": [ "", "bang" ],
                    "parameter_enable": 0,
                    "patching_rect": [ 212.0, 167.0, 50.0, 22.0 ],
                    "textcolor": [ 0.0, 0.0, 0.0, 1.0 ]
                }
            },
            {
                "box": {
                    "bgcolor": [ 1.0, 1.0, 1.0, 1.0 ],
                    "id": "obj-9",
                    "maxclass": "number",
                    "numinlets": 1,
                    "numoutlets": 2,
                    "outlettype": [ "", "bang" ],
                    "parameter_enable": 0,
                    "patching_rect": [ 153.0, 167.0, 50.0, 22.0 ],
                    "textcolor": [ 0.0, 0.0, 0.0, 1.0 ]
                }
            },
            {
                "box": {
                    "bgcolor": [ 1.0, 1.0, 1.0, 1.0 ],
                    "id": "obj-4",
                    "maxclass": "newobj",
                    "numinlets": 2,
                    "numoutlets": 1,
                    "outlettype": [ "int" ],
                    "patching_rect": [ 312.0, 409.0, 30.0, 22.0 ],
                    "text": "*",
                    "textcolor": [ 0.0, 0.0, 0.0, 1.0 ]
                }
            },
            {
                "box": {
                    "bgcolor": [ 1.0, 1.0, 1.0, 1.0 ],
                    "id": "obj-3",
                    "maxclass": "newobj",
                    "numinlets": 2,
                    "numoutlets": 1,
                    "outlettype": [ "int" ],
                    "patching_rect": [ 210.0, 409.0, 30.0, 22.0 ],
                    "text": "/",
                    "textcolor": [ 0.0, 0.0, 0.0, 1.0 ]
                }
            },
            {
                "box": {
                    "bgcolor": [ 1.0, 1.0, 1.0, 1.0 ],
                    "id": "obj-1",
                    "maxclass": "newobj",
                    "numinlets": 2,
                    "numoutlets": 1,
                    "outlettype": [ "int" ],
                    "patching_rect": [ 113.0, 409.0, 30.0, 22.0 ],
                    "text": "-",
                    "textcolor": [ 0.0, 0.0, 0.0, 1.0 ]
                }
            },
            {
                "box": {
                    "bgcolor": [ 1.0, 1.0, 1.0, 1.0 ],
                    "id": "obj-2",
                    "maxclass": "newobj",
                    "numinlets": 2,
                    "numoutlets": 1,
                    "outlettype": [ "int" ],
                    "patching_rect": [ 190.0, 216.0, 30.0, 22.0 ],
                    "text": "+",
                    "textcolor": [ 0.0, 0.0, 0.0, 1.0 ]
                }
            },
            {
                "box": {
                    "angle": 270.0,
                    "background": 1,
                    "bgcolor": [ 0.527443647384644, 0.659035265445709, 0.908119797706604, 1.0 ],
                    "id": "obj-274",
                    "maxclass": "panel",
                    "mode": 0,
                    "numinlets": 1,
                    "numoutlets": 0,
                    "patching_rect": [ 7.0, 4.0, 493.0, 437.0 ],
                    "proportion": 0.5
                }
            }
        ],
        "lines": [
            {
                "patchline": {
                    "destination": [ "obj-2", 1 ],
                    "source": [ "obj-10", 0 ]
                }
            },
            {
                "patchline": {
                    "destination": [ "obj-11", 0 ],
                    "source": [ "obj-2", 0 ]
                }
            },
            {
                "patchline": {
                    "destination": [ "obj-2", 0 ],
                    "source": [ "obj-9", 0 ]
                }
            }
        ],
        "autosave": 0,
        "bgcolor": [ 0.23535150289535522, 0.23535150289535522, 0.23535150289535522, 1.0 ]
    }
}