{
    "patcher": {
        "fileversion": 1,
        "appversion": {
            "major": 9,
            "minor": 1,
            "revision": 4,
            "architecture": "x64",
            "modernui": 1
        },
        "classnamespace": "box",
        "rect": [ 286.0, 96.0, 1282.0, 851.0 ],
        "boxes": [
            {
                "box": {
                    "bubble": 1,
                    "bubble_bgcolor": [ 1.0, 1.0, 1.0, 1.0 ],
                    "id": "obj-52",
                    "linecount": 6,
                    "maxclass": "comment",
                    "numinlets": 1,
                    "numoutlets": 0,
                    "patching_rect": [ 868.0, 503.0, 226.0, 91.0 ],
                    "presentation_linecount": 6,
                    "text": "button,\na GUI-based object that allows the user to click and activate other objects with the message 'bang,' which is computer-ese for \"do whatever you were designed to do\"",
                    "textcolor": [ 0.0, 0.0, 0.0, 1.0 ]
                }
            },
            {
                "box": {
                    "id": "obj-51",
                    "maxclass": "button",
                    "numinlets": 1,
                    "numoutlets": 1,
                    "outlettype": [ "bang" ],
                    "parameter_enable": 0,
                    "patching_rect": [ 842.0, 536.0, 24.0, 24.0 ]
                }
            },
            {
                "box": {
                    "bgcolor": [ 0.396078431372549, 0.396078431372549, 0.396078431372549, 0.0 ],
                    "bubble": 1,
                    "bubble_bgcolor": [ 1.0, 1.0, 1.0, 1.0 ],
                    "id": "obj-47",
                    "linecount": 17,
                    "maxclass": "comment",
                    "numinlets": 1,
                    "numoutlets": 0,
                    "patching_rect": [ 1096.0, 369.0, 123.0, 238.0 ],
                    "presentation_linecount": 17,
                    "text": "number,\nthis is the same object as the other number objects we've encountered, but here its attributes have been changed to display MIDI pitch data (do this by selecting the object with the patch locked and click on the 'i' icon on the right side of the toolbar)",
                    "textcolor": [ 0.0, 0.0, 0.0, 1.0 ]
                }
            },
            {
                "box": {
                    "format": 5,
                    "id": "obj-46",
                    "maxclass": "number",
                    "numinlets": 1,
                    "numoutlets": 2,
                    "outlettype": [ "", "bang" ],
                    "parameter_enable": 0,
                    "patching_rect": [ 1044.0, 477.0, 50.0, 22.0 ]
                }
            },
            {
                "box": {
                    "bgcolor": [ 0.396078431372549, 0.396078431372549, 0.396078431372549, 0.0 ],
                    "bubble": 1,
                    "bubble_bgcolor": [ 1.0, 1.0, 1.0, 1.0 ],
                    "id": "obj-21",
                    "linecount": 3,
                    "maxclass": "comment",
                    "numinlets": 1,
                    "numoutlets": 0,
                    "patching_rect": [ 1136.0, 318.5, 123.0, 51.0 ],
                    "presentation_linecount": 3,
                    "text": "random,\na pseudorandom number generator",
                    "textcolor": [ 0.0, 0.0, 0.0, 1.0 ]
                }
            },
            {
                "box": {
                    "id": "obj-43",
                    "maxclass": "newobj",
                    "numinlets": 2,
                    "numoutlets": 1,
                    "outlettype": [ "" ],
                    "patching_rect": [ 1085.0, 333.0, 49.0, 22.0 ],
                    "text": "random"
                }
            },
            {
                "box": {
                    "bubble": 1,
                    "bubble_bgcolor": [ 1.0, 1.0, 1.0, 1.0 ],
                    "id": "obj-20",
                    "linecount": 3,
                    "maxclass": "comment",
                    "numinlets": 1,
                    "numoutlets": 0,
                    "patching_rect": [ 814.5, 450.0, 226.0, 51.0 ],
                    "presentation_linecount": 3,
                    "text": "message,\na GUI-based object that allows users to store, display and output data",
                    "textcolor": [ 0.0, 0.0, 0.0, 1.0 ]
                }
            },
            {
                "box": {
                    "id": "obj-19",
                    "maxclass": "message",
                    "numinlets": 2,
                    "numoutlets": 1,
                    "outlettype": [ "" ],
                    "patching_rect": [ 760.5, 465.0, 50.0, 22.0 ]
                }
            },
            {
                "box": {
                    "bubble": 1,
                    "bubble_bgcolor": [ 1.0, 1.0, 1.0, 1.0 ],
                    "id": "obj-1",
                    "linecount": 3,
                    "maxclass": "comment",
                    "numinlets": 1,
                    "numoutlets": 0,
                    "patching_rect": [ 813.0, 399.0, 270.0, 51.0 ],
                    "presentation_linecount": 3,
                    "text": "noteout,\nan object that sends MIDI data out of Max to your computer's built-in synth or elsewhere",
                    "textcolor": [ 0.0, 0.0, 0.0, 1.0 ]
                }
            },
            {
                "box": {
                    "id": "obj-41",
                    "maxclass": "newobj",
                    "numinlets": 3,
                    "numoutlets": 0,
                    "patching_rect": [ 761.0, 413.0, 49.0, 22.0 ],
                    "text": "noteout"
                }
            },
            {
                "box": {
                    "bubble": 1,
                    "bubble_bgcolor": [ 1.0, 1.0, 1.0, 1.0 ],
                    "id": "obj-40",
                    "linecount": 4,
                    "maxclass": "comment",
                    "numinlets": 1,
                    "numoutlets": 0,
                    "patching_rect": [ 824.0, 333.0, 137.0, 64.0 ],
                    "presentation_linecount": 4,
                    "text": "makenote,\nan object that turns numbers into a MIDI signal",
                    "textcolor": [ 0.0, 0.0, 0.0, 1.0 ]
                }
            },
            {
                "box": {
                    "id": "obj-2",
                    "maxclass": "newobj",
                    "numinlets": 3,
                    "numoutlets": 2,
                    "outlettype": [ "float", "float" ],
                    "patching_rect": [ 761.0, 354.0, 61.0, 22.0 ],
                    "text": "makenote"
                }
            },
            {
                "box": {
                    "bubble": 1,
                    "bubble_bgcolor": [ 1.0, 1.0, 1.0, 1.0 ],
                    "id": "obj-5",
                    "linecount": 6,
                    "maxclass": "comment",
                    "numinlets": 1,
                    "numoutlets": 0,
                    "patching_rect": [ 1085.0, 227.0, 154.0, 91.0 ],
                    "presentation_linecount": 6,
                    "text": "nslider,\na GUI-based object that allows users to input a pitch (this object is also useful for displaying pitches)",
                    "textcolor": [ 0.0, 0.0, 0.0, 1.0 ]
                }
            },
            {
                "box": {
                    "id": "obj-7",
                    "maxclass": "nslider",
                    "numinlets": 2,
                    "numoutlets": 2,
                    "outlettype": [ "int", "int" ],
                    "parameter_enable": 0,
                    "patching_rect": [ 1008.0, 173.0, 75.0, 198.0 ]
                }
            },
            {
                "box": {
                    "bubble": 1,
                    "bubble_bgcolor": [ 1.0, 1.0, 1.0, 1.0 ],
                    "bubbleside": 3,
                    "id": "obj-8",
                    "linecount": 9,
                    "maxclass": "comment",
                    "numinlets": 1,
                    "numoutlets": 0,
                    "patching_rect": [ 1008.0, 38.0, 144.0, 131.0 ],
                    "presentation_linecount": 9,
                    "text": "prepend,\nan object that adds a message to the beginning of anything you input (in the case of the prepend object used to the left, it adds the word \"chord\" to the message",
                    "textcolor": [ 0.0, 0.0, 0.0, 1.0 ]
                }
            },
            {
                "box": {
                    "id": "obj-9",
                    "maxclass": "newobj",
                    "numinlets": 1,
                    "numoutlets": 1,
                    "outlettype": [ "" ],
                    "patching_rect": [ 1154.0, 92.0, 53.0, 22.0 ],
                    "text": "prepend"
                }
            },
            {
                "box": {
                    "bubble": 1,
                    "bubble_bgcolor": [ 1.0, 1.0, 1.0, 1.0 ],
                    "bubbleside": 3,
                    "id": "obj-10",
                    "linecount": 9,
                    "maxclass": "comment",
                    "numinlets": 1,
                    "numoutlets": 0,
                    "patching_rect": [ 759.0, 213.0, 144.0, 131.0 ],
                    "presentation_linecount": 9,
                    "text": "pack,\nan object that unites a number of different integers into a single message (in this case, a string of MIDI pitches and corresponding velocities)",
                    "textcolor": [ 0.0, 0.0, 0.0, 1.0 ]
                }
            },
            {
                "box": {
                    "id": "obj-33",
                    "maxclass": "newobj",
                    "numinlets": 2,
                    "numoutlets": 1,
                    "outlettype": [ "" ],
                    "patching_rect": [ 919.0, 261.0, 34.0, 22.0 ],
                    "text": "pack"
                }
            },
            {
                "box": {
                    "bubble": 1,
                    "bubble_bgcolor": [ 1.0, 1.0, 1.0, 1.0 ],
                    "bubbleside": 3,
                    "id": "obj-11",
                    "linecount": 3,
                    "maxclass": "comment",
                    "numinlets": 1,
                    "numoutlets": 0,
                    "patching_rect": [ 761.0, 162.0, 157.0, 51.0 ],
                    "presentation_linecount": 3,
                    "text": "+.\nan object to perform simple addition",
                    "textcolor": [ 0.0, 0.0, 0.0, 1.0 ]
                }
            },
            {
                "box": {
                    "id": "obj-12",
                    "maxclass": "newobj",
                    "numinlets": 2,
                    "numoutlets": 1,
                    "outlettype": [ "int" ],
                    "patching_rect": [ 919.0, 177.0, 29.5, 22.0 ],
                    "text": "+"
                }
            },
            {
                "box": {
                    "bubble": 1,
                    "bubble_bgcolor": [ 1.0, 1.0, 1.0, 1.0 ],
                    "bubbleside": 3,
                    "id": "obj-13",
                    "linecount": 4,
                    "maxclass": "comment",
                    "numinlets": 1,
                    "numoutlets": 0,
                    "patching_rect": [ 761.0, 98.0, 156.0, 64.0 ],
                    "presentation_linecount": 4,
                    "text": "number,\na GUI-based object that allows users to input an integer",
                    "textcolor": [ 0.0, 0.0, 0.0, 1.0 ]
                }
            },
            {
                "box": {
                    "id": "obj-14",
                    "maxclass": "number",
                    "numinlets": 1,
                    "numoutlets": 2,
                    "outlettype": [ "", "bang" ],
                    "parameter_enable": 0,
                    "patching_rect": [ 919.0, 115.0, 50.0, 22.0 ]
                }
            },
            {
                "box": {
                    "bubble": 1,
                    "bubble_bgcolor": [ 1.0, 1.0, 1.0, 1.0 ],
                    "bubbleside": 3,
                    "id": "obj-15",
                    "linecount": 4,
                    "maxclass": "comment",
                    "numinlets": 1,
                    "numoutlets": 0,
                    "patching_rect": [ 761.0, 33.0, 156.0, 64.0 ],
                    "presentation_linecount": 4,
                    "text": "kslider,\na GUI-based object that allows users to click on pitches intuitively",
                    "textcolor": [ 0.0, 0.0, 0.0, 1.0 ]
                }
            },
            {
                "box": {
                    "id": "obj-16",
                    "maxclass": "comment",
                    "numinlets": 1,
                    "numoutlets": 0,
                    "patching_rect": [ 919.0, 14.0, 293.0, 20.0 ],
                    "text": "More about the objects in this patch (not in the book):"
                }
            },
            {
                "box": {
                    "id": "obj-17",
                    "maxclass": "kslider",
                    "numinlets": 2,
                    "numoutlets": 2,
                    "offset": 60,
                    "outlettype": [ "int", "int" ],
                    "parameter_enable": 0,
                    "patching_rect": [ 919.0, 38.0, 84.0, 53.0 ],
                    "range": 12
                }
            },
            {
                "box": {
                    "bgcolor": [ 0.396078431372549, 0.396078431372549, 0.396078431372549, 0.0 ],
                    "bubble": 1,
                    "bubble_bgcolor": [ 1.0, 1.0, 1.0, 1.0 ],
                    "id": "obj-4",
                    "linecount": 2,
                    "maxclass": "comment",
                    "numinlets": 1,
                    "numoutlets": 0,
                    "patching_rect": [ 366.0, 661.0, 70.0, 37.0 ],
                    "text": "MIDI output",
                    "textcolor": [ 0.0, 0.0, 0.0, 1.0 ]
                }
            },
            {
                "box": {
                    "bgcolor": [ 1.0, 1.0, 1.0, 1.0 ],
                    "bubble_bgcolor": [ 1.0, 1.0, 1.0, 1.0 ],
                    "bubble_outlinecolor": [ 1.0, 1.0, 1.0, 1.0 ],
                    "id": "obj-133",
                    "linecount": 3,
                    "maxclass": "comment",
                    "numinlets": 1,
                    "numoutlets": 0,
                    "patching_rect": [ 22.0, 148.0, 116.0, 47.0 ],
                    "text": "Selected pitch (Note name & octave)",
                    "textcolor": [ 0.0, 0.0, 0.0, 1.0 ]
                }
            },
            {
                "box": {
                    "format": 5,
                    "id": "obj-134",
                    "maxclass": "number",
                    "numinlets": 1,
                    "numoutlets": 2,
                    "outlettype": [ "", "bang" ],
                    "parameter_enable": 0,
                    "patching_rect": [ 140.0, 173.0, 50.0, 22.0 ]
                }
            },
            {
                "box": {
                    "bgcolor": [ 1.0, 1.0, 1.0, 1.0 ],
                    "bubble_bgcolor": [ 1.0, 1.0, 1.0, 1.0 ],
                    "bubble_outlinecolor": [ 1.0, 1.0, 1.0, 1.0 ],
                    "id": "obj-130",
                    "linecount": 3,
                    "maxclass": "comment",
                    "numinlets": 1,
                    "numoutlets": 0,
                    "patching_rect": [ 333.0, 13.0, 62.0, 47.0 ],
                    "text": "Click to select pitch",
                    "textcolor": [ 0.0, 0.0, 0.0, 1.0 ]
                }
            },
            {
                "box": {
                    "id": "obj-116",
                    "maxclass": "newobj",
                    "numinlets": 3,
                    "numoutlets": 0,
                    "patching_rect": [ 313.0, 669.0, 49.0, 22.0 ],
                    "text": "noteout"
                }
            },
            {
                "box": {
                    "id": "obj-117",
                    "maxclass": "newobj",
                    "numinlets": 3,
                    "numoutlets": 2,
                    "outlettype": [ "float", "float" ],
                    "patching_rect": [ 313.0, 626.0, 108.0, 22.0 ],
                    "text": "makenote 127 500"
                }
            },
            {
                "box": {
                    "bgcolor": [ 0.396078431372549, 0.396078431372549, 0.396078431372549, 0.0 ],
                    "bubble": 1,
                    "bubble_bgcolor": [ 1.0, 1.0, 1.0, 1.0 ],
                    "bubbleside": 3,
                    "id": "obj-39",
                    "linecount": 3,
                    "maxclass": "comment",
                    "numinlets": 1,
                    "numoutlets": 0,
                    "patching_rect": [ 25.0, 200.0, 178.0, 51.0 ],
                    "text": "pseudorandom process (pick a number between 1 and 12)",
                    "textcolor": [ 0.0, 0.0, 0.0, 1.0 ]
                }
            },
            {
                "box": {
                    "bgcolor": [ 0.396078431372549, 0.396078431372549, 0.396078431372549, 0.0 ],
                    "bubble": 1,
                    "bubble_bgcolor": [ 1.0, 1.0, 1.0, 1.0 ],
                    "id": "obj-6",
                    "linecount": 3,
                    "maxclass": "comment",
                    "numinlets": 1,
                    "numoutlets": 0,
                    "patching_rect": [ 521.0, 192.0, 157.0, 51.0 ],
                    "text": "pseudorandom process (pick a number between 1 and 12)",
                    "textcolor": [ 0.0, 0.0, 0.0, 1.0 ]
                }
            },
            {
                "box": {
                    "id": "obj-3",
                    "maxclass": "button",
                    "numinlets": 1,
                    "numoutlets": 1,
                    "outlettype": [ "bang" ],
                    "parameter_enable": 0,
                    "patching_rect": [ 453.0, 171.0, 24.0, 24.0 ]
                }
            },
            {
                "box": {
                    "id": "obj-63",
                    "maxclass": "message",
                    "numinlets": 2,
                    "numoutlets": 1,
                    "outlettype": [ "" ],
                    "patching_rect": [ 404.0, 207.0, 50.0, 22.0 ],
                    "text": "67"
                }
            },
            {
                "box": {
                    "id": "obj-62",
                    "maxclass": "message",
                    "numinlets": 2,
                    "numoutlets": 1,
                    "outlettype": [ "" ],
                    "patching_rect": [ 277.0, 215.0, 50.0, 22.0 ],
                    "text": "67"
                }
            },
            {
                "box": {
                    "bgcolor": [ 1.0, 1.0, 1.0, 1.0 ],
                    "bubble_bgcolor": [ 1.0, 1.0, 1.0, 1.0 ],
                    "bubble_outlinecolor": [ 1.0, 1.0, 1.0, 1.0 ],
                    "id": "obj-49",
                    "linecount": 3,
                    "maxclass": "comment",
                    "numinlets": 1,
                    "numoutlets": 0,
                    "patching_rect": [ 494.0, 248.0, 62.0, 47.0 ],
                    "text": "random integer to add",
                    "textcolor": [ 0.0, 0.0, 0.0, 1.0 ]
                }
            },
            {
                "box": {
                    "bgcolor": [ 1.0, 1.0, 1.0, 1.0 ],
                    "bubble_bgcolor": [ 1.0, 1.0, 1.0, 1.0 ],
                    "bubble_outlinecolor": [ 1.0, 1.0, 1.0, 1.0 ],
                    "id": "obj-48",
                    "linecount": 3,
                    "maxclass": "comment",
                    "numinlets": 1,
                    "numoutlets": 0,
                    "patching_rect": [ 291.0, 254.0, 62.0, 47.0 ],
                    "text": "random integer to add",
                    "textcolor": [ 0.0, 0.0, 0.0, 1.0 ]
                }
            },
            {
                "box": {
                    "id": "obj-45",
                    "maxclass": "message",
                    "numinlets": 2,
                    "numoutlets": 1,
                    "outlettype": [ "" ],
                    "patching_rect": [ 442.0, 248.0, 50.0, 22.0 ],
                    "text": "7"
                }
            },
            {
                "box": {
                    "id": "obj-44",
                    "maxclass": "message",
                    "numinlets": 2,
                    "numoutlets": 1,
                    "outlettype": [ "" ],
                    "patching_rect": [ 239.0, 254.0, 50.0, 22.0 ],
                    "text": "2"
                }
            },
            {
                "box": {
                    "id": "obj-42",
                    "maxclass": "button",
                    "numinlets": 1,
                    "numoutlets": 1,
                    "outlettype": [ "bang" ],
                    "parameter_enable": 0,
                    "patching_rect": [ 205.0, 178.0, 24.0, 24.0 ]
                }
            },
            {
                "box": {
                    "id": "obj-38",
                    "maxclass": "newobj",
                    "numinlets": 2,
                    "numoutlets": 1,
                    "outlettype": [ "" ],
                    "patching_rect": [ 453.0, 207.0, 66.0, 22.0 ],
                    "text": "random 12"
                }
            },
            {
                "box": {
                    "id": "obj-37",
                    "maxclass": "newobj",
                    "numinlets": 2,
                    "numoutlets": 1,
                    "outlettype": [ "" ],
                    "patching_rect": [ 205.0, 215.0, 66.0, 22.0 ],
                    "text": "random 12"
                }
            },
            {
                "box": {
                    "bgcolor": [ 0.396078431372549, 0.396078431372549, 0.396078431372549, 0.0 ],
                    "bubble": 1,
                    "bubble_bgcolor": [ 1.0, 1.0, 1.0, 1.0 ],
                    "id": "obj-22",
                    "linecount": 2,
                    "maxclass": "comment",
                    "numinlets": 1,
                    "numoutlets": 0,
                    "patching_rect": [ 389.0, 478.0, 80.0, 37.0 ],
                    "text": "Resultant chord",
                    "textcolor": [ 0.0, 0.0, 0.0, 1.0 ]
                }
            },
            {
                "box": {
                    "bgcolor": [ 0.396078431372549, 0.396078431372549, 0.396078431372549, 0.0 ],
                    "bubble": 1,
                    "bubble_bgcolor": [ 1.0, 1.0, 1.0, 1.0 ],
                    "id": "obj-23",
                    "maxclass": "comment",
                    "numinlets": 1,
                    "numoutlets": 0,
                    "patching_rect": [ 385.0, 129.0, 57.0, 24.0 ],
                    "text": "Tonic",
                    "textcolor": [ 0.0, 0.0, 0.0, 1.0 ]
                }
            },
            {
                "box": {
                    "bgcolor": [ 0.396078431372549, 0.396078431372549, 0.396078431372549, 0.0 ],
                    "bubble": 1,
                    "bubble_bgcolor": [ 1.0, 1.0, 1.0, 1.0 ],
                    "id": "obj-24",
                    "linecount": 3,
                    "maxclass": "comment",
                    "numinlets": 1,
                    "numoutlets": 0,
                    "patching_rect": [ 458.0, 296.0, 103.0, 51.0 ],
                    "text": "diminised 7th (randomly chosen)",
                    "textcolor": [ 0.0, 0.0, 0.0, 1.0 ]
                }
            },
            {
                "box": {
                    "bgcolor": [ 0.396078431372549, 0.396078431372549, 0.396078431372549, 0.0 ],
                    "bubble": 1,
                    "bubble_bgcolor": [ 1.0, 1.0, 1.0, 1.0 ],
                    "bubbleside": 3,
                    "id": "obj-25",
                    "linecount": 3,
                    "maxclass": "comment",
                    "numinlets": 1,
                    "numoutlets": 0,
                    "patching_rect": [ 113.0, 274.0, 88.00000131130219, 51.0 ],
                    "text": "Perfect 4th (randomly chosen)",
                    "textcolor": [ 0.0, 0.0, 0.0, 1.0 ]
                }
            },
            {
                "box": {
                    "id": "obj-26",
                    "maxclass": "nslider",
                    "mode": 1,
                    "numinlets": 2,
                    "numoutlets": 2,
                    "outlettype": [ "int", "int" ],
                    "parameter_enable": 0,
                    "patching_rect": [ 313.0, 412.0, 75.0, 198.0 ]
                }
            },
            {
                "box": {
                    "id": "obj-27",
                    "maxclass": "newobj",
                    "numinlets": 1,
                    "numoutlets": 1,
                    "outlettype": [ "" ],
                    "patching_rect": [ 313.0, 380.0, 86.0, 22.0 ],
                    "text": "prepend chord"
                }
            },
            {
                "box": {
                    "id": "obj-28",
                    "maxclass": "newobj",
                    "numinlets": 6,
                    "numoutlets": 1,
                    "outlettype": [ "" ],
                    "patching_rect": [ 313.0, 356.0, 134.0, 22.0 ],
                    "text": "pack 0 127 0 127 0 127"
                }
            },
            {
                "box": {
                    "id": "obj-29",
                    "maxclass": "number",
                    "numinlets": 1,
                    "numoutlets": 2,
                    "outlettype": [ "", "bang" ],
                    "parameter_enable": 0,
                    "patching_rect": [ 406.0, 311.0, 50.0, 22.0 ]
                }
            },
            {
                "box": {
                    "id": "obj-30",
                    "maxclass": "newobj",
                    "numinlets": 2,
                    "numoutlets": 1,
                    "outlettype": [ "int" ],
                    "patching_rect": [ 406.0, 248.0, 29.5, 22.0 ],
                    "text": "+"
                }
            },
            {
                "box": {
                    "id": "obj-31",
                    "maxclass": "number",
                    "numinlets": 1,
                    "numoutlets": 2,
                    "outlettype": [ "", "bang" ],
                    "parameter_enable": 0,
                    "patching_rect": [ 205.0, 288.0, 50.0, 22.0 ]
                }
            },
            {
                "box": {
                    "id": "obj-32",
                    "maxclass": "newobj",
                    "numinlets": 2,
                    "numoutlets": 1,
                    "outlettype": [ "int" ],
                    "patching_rect": [ 205.0, 254.0, 29.5, 22.0 ],
                    "text": "+"
                }
            },
            {
                "box": {
                    "id": "obj-34",
                    "maxclass": "number",
                    "numinlets": 1,
                    "numoutlets": 2,
                    "outlettype": [ "", "bang" ],
                    "parameter_enable": 0,
                    "patching_rect": [ 333.0, 130.0, 50.0, 22.0 ]
                }
            },
            {
                "box": {
                    "bgcolor": [ 1.0, 1.0, 1.0, 1.0 ],
                    "bubble_bgcolor": [ 1.0, 1.0, 1.0, 1.0 ],
                    "bubble_outlinecolor": [ 1.0, 1.0, 1.0, 1.0 ],
                    "id": "obj-35",
                    "linecount": 3,
                    "maxclass": "comment",
                    "numinlets": 1,
                    "numoutlets": 0,
                    "patching_rect": [ 268.0, 117.0, 59.0, 47.0 ],
                    "text": "Selected \nMIDI\npitch",
                    "textcolor": [ 0.0, 0.0, 0.0, 1.0 ]
                }
            },
            {
                "box": {
                    "id": "obj-36",
                    "maxclass": "kslider",
                    "numinlets": 2,
                    "numoutlets": 2,
                    "offset": 60,
                    "outlettype": [ "int", "int" ],
                    "parameter_enable": 0,
                    "patching_rect": [ 333.0, 63.0, 84.0, 53.0 ],
                    "range": 12
                }
            }
        ],
        "lines": [
            {
                "patchline": {
                    "destination": [ "obj-116", 1 ],
                    "source": [ "obj-117", 1 ]
                }
            },
            {
                "patchline": {
                    "destination": [ "obj-116", 0 ],
                    "source": [ "obj-117", 0 ]
                }
            },
            {
                "patchline": {
                    "destination": [ "obj-117", 0 ],
                    "source": [ "obj-26", 0 ]
                }
            },
            {
                "patchline": {
                    "destination": [ "obj-26", 0 ],
                    "source": [ "obj-27", 0 ]
                }
            },
            {
                "patchline": {
                    "destination": [ "obj-27", 0 ],
                    "source": [ "obj-28", 0 ]
                }
            },
            {
                "patchline": {
                    "destination": [ "obj-28", 4 ],
                    "midpoints": [ 415.5, 331.5000038743019, 414.5, 331.5000038743019 ],
                    "source": [ "obj-29", 0 ]
                }
            },
            {
                "patchline": {
                    "destination": [ "obj-38", 0 ],
                    "order": 0,
                    "source": [ "obj-3", 0 ]
                }
            },
            {
                "patchline": {
                    "destination": [ "obj-63", 0 ],
                    "order": 1,
                    "source": [ "obj-3", 0 ]
                }
            },
            {
                "patchline": {
                    "destination": [ "obj-29", 0 ],
                    "source": [ "obj-30", 0 ]
                }
            },
            {
                "patchline": {
                    "destination": [ "obj-28", 2 ],
                    "midpoints": [ 214.5, 323.3027382493019, 368.5, 323.3027382493019 ],
                    "source": [ "obj-31", 0 ]
                }
            },
            {
                "patchline": {
                    "destination": [ "obj-31", 0 ],
                    "source": [ "obj-32", 0 ]
                }
            },
            {
                "patchline": {
                    "destination": [ "obj-134", 0 ],
                    "order": 5,
                    "source": [ "obj-34", 0 ]
                }
            },
            {
                "patchline": {
                    "destination": [ "obj-28", 0 ],
                    "midpoints": [ 342.5, 316.69999688863754, 322.5, 316.69999688863754 ],
                    "order": 3,
                    "source": [ "obj-34", 0 ]
                }
            },
            {
                "patchline": {
                    "destination": [ "obj-3", 0 ],
                    "order": 0,
                    "source": [ "obj-34", 0 ]
                }
            },
            {
                "patchline": {
                    "destination": [ "obj-42", 0 ],
                    "order": 4,
                    "source": [ "obj-34", 0 ]
                }
            },
            {
                "patchline": {
                    "destination": [ "obj-62", 1 ],
                    "order": 2,
                    "source": [ "obj-34", 0 ]
                }
            },
            {
                "patchline": {
                    "destination": [ "obj-63", 1 ],
                    "order": 1,
                    "source": [ "obj-34", 0 ]
                }
            },
            {
                "patchline": {
                    "destination": [ "obj-34", 0 ],
                    "source": [ "obj-36", 0 ]
                }
            },
            {
                "patchline": {
                    "destination": [ "obj-32", 1 ],
                    "order": 1,
                    "source": [ "obj-37", 0 ]
                }
            },
            {
                "patchline": {
                    "destination": [ "obj-44", 1 ],
                    "order": 0,
                    "source": [ "obj-37", 0 ]
                }
            },
            {
                "patchline": {
                    "destination": [ "obj-30", 1 ],
                    "order": 1,
                    "source": [ "obj-38", 0 ]
                }
            },
            {
                "patchline": {
                    "destination": [ "obj-45", 1 ],
                    "order": 0,
                    "source": [ "obj-38", 0 ]
                }
            },
            {
                "patchline": {
                    "destination": [ "obj-37", 0 ],
                    "order": 1,
                    "source": [ "obj-42", 0 ]
                }
            },
            {
                "patchline": {
                    "destination": [ "obj-62", 0 ],
                    "order": 0,
                    "source": [ "obj-42", 0 ]
                }
            },
            {
                "patchline": {
                    "destination": [ "obj-32", 0 ],
                    "source": [ "obj-62", 0 ]
                }
            },
            {
                "patchline": {
                    "destination": [ "obj-30", 0 ],
                    "source": [ "obj-63", 0 ]
                }
            }
        ],
        "parameters": {
            "parameterbanks": {
                "0": {
                    "index": 0,
                    "name": "",
                    "parameters": [ "-", "-", "-", "-", "-", "-", "-", "-" ],
                    "buttons": [ "-", "-", "-", "-", "-", "-", "-", "-" ]
                }
            },
            "inherited_shortname": 1
        },
        "autosave": 0
    }
}