{
    "patcher": {
        "fileversion": 1,
        "appversion": {
            "major": 9,
            "minor": 1,
            "revision": 4,
            "architecture": "x64",
            "modernui": 1
        },
        "classnamespace": "box",
        "rect": [ 639.0, 159.0, 897.0, 323.0 ],
        "boxes": [
            {
                "box": {
                    "bubble": 1,
                    "bubble_bgcolor": [ 1.0, 1.0, 1.0, 1.0 ],
                    "id": "obj-57",
                    "linecount": 3,
                    "maxclass": "comment",
                    "numinlets": 1,
                    "numoutlets": 0,
                    "patching_rect": [ 673.0, 250.0, 152.0, 51.0 ],
                    "presentation_linecount": 3,
                    "text": "transport,\nan object that controls Max's internal transport",
                    "textcolor": [ 0.0, 0.0, 0.0, 1.0 ]
                }
            },
            {
                "box": {
                    "bubble": 1,
                    "bubble_bgcolor": [ 1.0, 1.0, 1.0, 1.0 ],
                    "id": "obj-56",
                    "linecount": 4,
                    "maxclass": "comment",
                    "numinlets": 1,
                    "numoutlets": 0,
                    "patching_rect": [ 649.0, 185.0, 171.0, 64.0 ],
                    "presentation_linecount": 4,
                    "text": "metro,\na metronome object that sends out bangs according to its internal argument",
                    "textcolor": [ 0.0, 0.0, 0.0, 1.0 ]
                }
            },
            {
                "box": {
                    "id": "obj-55",
                    "maxclass": "toggle",
                    "numinlets": 1,
                    "numoutlets": 1,
                    "outlettype": [ "int" ],
                    "parameter_enable": 0,
                    "patching_rect": [ 564.0, 233.0, 24.0, 24.0 ]
                }
            },
            {
                "box": {
                    "id": "obj-50",
                    "maxclass": "newobj",
                    "numinlets": 2,
                    "numoutlets": 9,
                    "outlettype": [ "int", "int", "float", "float", "float", "", "int", "float", "" ],
                    "patching_rect": [ 568.0, 271.0, 103.0, 22.0 ],
                    "text": "transport"
                }
            },
            {
                "box": {
                    "id": "obj-53",
                    "maxclass": "newobj",
                    "numinlets": 2,
                    "numoutlets": 1,
                    "outlettype": [ "bang" ],
                    "patching_rect": [ 608.0, 206.0, 39.0, 22.0 ],
                    "text": "metro"
                }
            },
            {
                "box": {
                    "bubble": 1,
                    "bubble_bgcolor": [ 1.0, 1.0, 1.0, 1.0 ],
                    "bubbleside": 3,
                    "id": "obj-49",
                    "linecount": 5,
                    "maxclass": "comment",
                    "numinlets": 1,
                    "numoutlets": 0,
                    "patching_rect": [ 406.0, 206.0, 156.0, 78.0 ],
                    "presentation_linecount": 5,
                    "text": "toggle,\na GUI-based object that can be used to turn on or off processes (it outputs either a 0 or a 1)",
                    "textcolor": [ 0.0, 0.0, 0.0, 1.0 ]
                }
            },
            {
                "box": {
                    "id": "obj-48",
                    "maxclass": "newobj",
                    "numinlets": 2,
                    "numoutlets": 9,
                    "outlettype": [ "int", "int", "float", "float", "float", "", "int", "float", "" ],
                    "patching_rect": [ 82.0, 75.0, 103.0, 22.0 ],
                    "text": "transport"
                }
            },
            {
                "box": {
                    "id": "obj-47",
                    "maxclass": "newobj",
                    "numinlets": 2,
                    "numoutlets": 1,
                    "outlettype": [ "bang" ],
                    "patching_rect": [ 33.0, 75.0, 39.0, 22.0 ],
                    "text": "metro"
                }
            },
            {
                "box": {
                    "id": "obj-46",
                    "maxclass": "toggle",
                    "numinlets": 1,
                    "numoutlets": 1,
                    "outlettype": [ "int" ],
                    "parameter_enable": 0,
                    "patching_rect": [ 33.0, 10.0, 24.0, 24.0 ]
                }
            },
            {
                "box": {
                    "id": "obj-8",
                    "maxclass": "number",
                    "numinlets": 1,
                    "numoutlets": 2,
                    "outlettype": [ "", "bang" ],
                    "parameter_enable": 0,
                    "patching_rect": [ 33.0, 248.0, 50.0, 22.0 ]
                }
            },
            {
                "box": {
                    "id": "obj-42",
                    "maxclass": "kslider",
                    "numinlets": 2,
                    "numoutlets": 2,
                    "outlettype": [ "int", "int" ],
                    "parameter_enable": 0,
                    "patching_rect": [ 33.0, 173.0, 336.0, 53.0 ]
                }
            },
            {
                "box": {
                    "id": "obj-44",
                    "maxclass": "button",
                    "numinlets": 1,
                    "numoutlets": 1,
                    "outlettype": [ "bang" ],
                    "parameter_enable": 0,
                    "patching_rect": [ 33.0, 120.0, 24.0, 24.0 ]
                }
            },
            {
                "box": {
                    "bubble": 1,
                    "bubble_bgcolor": [ 1.0, 1.0, 1.0, 1.0 ],
                    "id": "obj-52",
                    "linecount": 6,
                    "maxclass": "comment",
                    "numinlets": 1,
                    "numoutlets": 0,
                    "patching_rect": [ 650.0, 62.0, 228.0, 91.0 ],
                    "text": "button,\na GUI-based object that allows the user to click and activate other objects with the message 'bang,' which is computer-ese for \"do whatever you were designed to do\"",
                    "textcolor": [ 0.0, 0.0, 0.0, 1.0 ]
                }
            },
            {
                "box": {
                    "id": "obj-51",
                    "maxclass": "button",
                    "numinlets": 1,
                    "numoutlets": 1,
                    "outlettype": [ "bang" ],
                    "parameter_enable": 0,
                    "patching_rect": [ 623.0, 96.0, 24.0, 24.0 ]
                }
            },
            {
                "box": {
                    "bubble": 1,
                    "bubble_bgcolor": [ 1.0, 1.0, 1.0, 1.0 ],
                    "bubbleside": 3,
                    "id": "obj-14",
                    "linecount": 4,
                    "maxclass": "comment",
                    "numinlets": 1,
                    "numoutlets": 0,
                    "patching_rect": [ 507.0, 138.0, 156.0, 64.0 ],
                    "text": "number,\na GUI-based object that allows users to input an integer",
                    "textcolor": [ 0.0, 0.0, 0.0, 1.0 ]
                }
            },
            {
                "box": {
                    "id": "obj-15",
                    "maxclass": "number",
                    "numinlets": 1,
                    "numoutlets": 2,
                    "outlettype": [ "", "bang" ],
                    "parameter_enable": 0,
                    "patching_rect": [ 664.0, 155.0, 50.0, 22.0 ]
                }
            },
            {
                "box": {
                    "bubble": 1,
                    "bubble_bgcolor": [ 1.0, 1.0, 1.0, 1.0 ],
                    "bubbleside": 3,
                    "id": "obj-16",
                    "linecount": 7,
                    "maxclass": "comment",
                    "numinlets": 1,
                    "numoutlets": 0,
                    "patching_rect": [ 406.0, 10.5, 156.0, 104.0 ],
                    "presentation_linecount": 7,
                    "text": "kslider,\na GUI-based object that allows users to click on pitches intuitively. You can change the range of this object in the Inspector window.",
                    "textcolor": [ 0.0, 0.0, 0.0, 1.0 ]
                }
            },
            {
                "box": {
                    "id": "obj-17",
                    "maxclass": "comment",
                    "numinlets": 1,
                    "numoutlets": 0,
                    "patching_rect": [ 564.0, 12.0, 293.0, 20.0 ],
                    "text": "More about the objects in this patch (not in the book):"
                }
            },
            {
                "box": {
                    "id": "obj-37",
                    "maxclass": "kslider",
                    "numinlets": 2,
                    "numoutlets": 2,
                    "offset": 60,
                    "outlettype": [ "int", "int" ],
                    "parameter_enable": 0,
                    "patching_rect": [ 564.0, 36.0, 84.0, 53.0 ],
                    "range": 12
                }
            }
        ],
        "lines": [
            {
                "patchline": {
                    "destination": [ "obj-8", 0 ],
                    "source": [ "obj-42", 0 ]
                }
            },
            {
                "patchline": {
                    "destination": [ "obj-42", 0 ],
                    "source": [ "obj-44", 0 ]
                }
            },
            {
                "patchline": {
                    "destination": [ "obj-47", 0 ],
                    "order": 1,
                    "source": [ "obj-46", 0 ]
                }
            },
            {
                "patchline": {
                    "destination": [ "obj-48", 0 ],
                    "order": 0,
                    "source": [ "obj-46", 0 ]
                }
            },
            {
                "patchline": {
                    "destination": [ "obj-44", 0 ],
                    "source": [ "obj-47", 0 ]
                }
            }
        ],
        "autosave": 0
    }
}