{
    "patcher": {
        "fileversion": 1,
        "appversion": {
            "major": 9,
            "minor": 1,
            "revision": 4,
            "architecture": "x64",
            "modernui": 1
        },
        "classnamespace": "box",
        "rect": [ 129.0, 96.0, 1298.0, 612.0 ],
        "boxes": [
            {
                "box": {
                    "bgcolor": [ 0.396078431372549, 0.396078431372549, 0.396078431372549, 0.0 ],
                    "bubble": 1,
                    "bubble_bgcolor": [ 1.0, 1.0, 1.0, 1.0 ],
                    "bubbleside": 3,
                    "id": "obj-39",
                    "linecount": 4,
                    "maxclass": "comment",
                    "numinlets": 1,
                    "numoutlets": 0,
                    "patching_rect": [ 1022.0, 396.0, 142.66667091846466, 64.0 ],
                    "presentation_linecount": 4,
                    "text": "counter,\nan object that counts bangs it receives and outputs the count",
                    "textcolor": [ 0.0, 0.0, 0.0, 1.0 ]
                }
            },
            {
                "box": {
                    "id": "obj-38",
                    "maxclass": "newobj",
                    "numinlets": 5,
                    "numoutlets": 4,
                    "outlettype": [ "int", "", "", "int" ],
                    "patching_rect": [ 1168.0, 417.0, 61.0, 22.0 ],
                    "text": "counter"
                }
            },
            {
                "box": {
                    "fontsize": 12.0,
                    "id": "obj-21",
                    "linecount": 2,
                    "maxclass": "comment",
                    "numinlets": 1,
                    "numoutlets": 0,
                    "patching_rect": [ 419.5, 247.5, 115.5, 33.0 ],
                    "presentation_linecount": 2,
                    "text": "A counter, counting from 1 to 4"
                }
            },
            {
                "box": {
                    "id": "obj-20",
                    "linecount": 3,
                    "maxclass": "comment",
                    "numinlets": 1,
                    "numoutlets": 0,
                    "patching_rect": [ 418.0, 196.5, 117.0, 47.0 ],
                    "text": "Three different metros with varying note values"
                }
            },
            {
                "box": {
                    "id": "obj-18",
                    "maxclass": "newobj",
                    "numinlets": 5,
                    "numoutlets": 4,
                    "outlettype": [ "int", "", "", "int" ],
                    "patching_rect": [ 537.0, 253.0, 69.0, 22.0 ],
                    "text": "counter 1 4"
                }
            },
            {
                "box": {
                    "id": "obj-13",
                    "maxclass": "newobj",
                    "numinlets": 2,
                    "numoutlets": 1,
                    "outlettype": [ "bang" ],
                    "patching_rect": [ 669.0, 217.0, 63.0, 22.0 ],
                    "text": "metro 16n"
                }
            },
            {
                "box": {
                    "id": "obj-12",
                    "maxclass": "newobj",
                    "numinlets": 2,
                    "numoutlets": 1,
                    "outlettype": [ "bang" ],
                    "patching_rect": [ 602.0, 217.0, 56.0, 22.0 ],
                    "text": "metro 8n"
                }
            },
            {
                "box": {
                    "id": "obj-11",
                    "maxclass": "newobj",
                    "numinlets": 2,
                    "numoutlets": 1,
                    "outlettype": [ "bang" ],
                    "patching_rect": [ 537.0, 217.0, 56.0, 22.0 ],
                    "text": "metro 4n"
                }
            },
            {
                "box": {
                    "id": "obj-9",
                    "linecount": 2,
                    "maxclass": "comment",
                    "numinlets": 1,
                    "numoutlets": 0,
                    "patching_rect": [ 537.0, 134.0, 114.0, 33.0 ],
                    "presentation_linecount": 2,
                    "text": "A toggle, to turn the metros on"
                }
            },
            {
                "box": {
                    "id": "obj-7",
                    "maxclass": "toggle",
                    "numinlets": 1,
                    "numoutlets": 1,
                    "outlettype": [ "int" ],
                    "parameter_enable": 0,
                    "patching_rect": [ 537.0, 172.0, 24.0, 24.0 ]
                }
            },
            {
                "box": {
                    "id": "obj-69",
                    "linecount": 3,
                    "maxclass": "comment",
                    "numinlets": 1,
                    "numoutlets": 0,
                    "patching_rect": [ 136.0, 402.0, 117.0, 47.0 ],
                    "text": "This number object displays what MIDI pitch is being sent"
                }
            },
            {
                "box": {
                    "id": "obj-68",
                    "linecount": 3,
                    "maxclass": "comment",
                    "numinlets": 1,
                    "numoutlets": 0,
                    "patching_rect": [ 30.0, 307.0, 131.0, 47.0 ],
                    "text": "Click this kslider to change the note being played"
                }
            },
            {
                "box": {
                    "id": "obj-67",
                    "linecount": 3,
                    "maxclass": "comment",
                    "numinlets": 1,
                    "numoutlets": 0,
                    "patching_rect": [ 189.0, 254.0, 127.0, 47.0 ],
                    "text": "Click on this button to play beats without a metronome"
                }
            },
            {
                "box": {
                    "id": "obj-63",
                    "linecount": 2,
                    "maxclass": "comment",
                    "numinlets": 1,
                    "numoutlets": 0,
                    "patching_rect": [ 286.0, 19.0, 116.0, 33.0 ],
                    "text": "TEMPO-RELATIVE NOTE VALUES"
                }
            },
            {
                "box": {
                    "id": "obj-5",
                    "linecount": 5,
                    "maxclass": "comment",
                    "numinlets": 1,
                    "numoutlets": 0,
                    "patching_rect": [ 6.0, 157.0, 155.0, 74.0 ],
                    "text": "This metro's default is 100 ms. For tempo-relative beats, choose a note value from the umenu objects to the right."
                }
            },
            {
                "box": {
                    "id": "obj-54",
                    "linecount": 4,
                    "maxclass": "comment",
                    "numinlets": 1,
                    "numoutlets": 0,
                    "patching_rect": [ 73.0, 19.0, 86.0, 60.0 ],
                    "text": "Click this toggle to start playing the beats below"
                }
            },
            {
                "box": {
                    "bubble": 1,
                    "bubble_bgcolor": [ 1.0, 1.0, 1.0, 1.0 ],
                    "id": "obj-3",
                    "linecount": 3,
                    "maxclass": "comment",
                    "numinlets": 1,
                    "numoutlets": 0,
                    "patching_rect": [ 873.0, 463.0, 270.0, 51.0 ],
                    "text": "noteout,\nan object that sends MIDI data out of Max to your computer's built-in synth or elsewhere",
                    "textcolor": [ 0.0, 0.0, 0.0, 1.0 ]
                }
            },
            {
                "box": {
                    "id": "obj-41",
                    "maxclass": "newobj",
                    "numinlets": 3,
                    "numoutlets": 0,
                    "patching_rect": [ 821.0, 476.0, 49.0, 22.0 ],
                    "text": "noteout"
                }
            },
            {
                "box": {
                    "bubble": 1,
                    "bubble_bgcolor": [ 1.0, 1.0, 1.0, 1.0 ],
                    "id": "obj-40",
                    "linecount": 4,
                    "maxclass": "comment",
                    "numinlets": 1,
                    "numoutlets": 0,
                    "patching_rect": [ 883.0, 396.0, 137.0, 64.0 ],
                    "text": "makenote,\nan object that turns numbers into a MIDI signal",
                    "textcolor": [ 0.0, 0.0, 0.0, 1.0 ]
                }
            },
            {
                "box": {
                    "id": "obj-4",
                    "maxclass": "newobj",
                    "numinlets": 3,
                    "numoutlets": 2,
                    "outlettype": [ "float", "float" ],
                    "patching_rect": [ 821.0, 417.0, 61.0, 22.0 ],
                    "text": "makenote"
                }
            },
            {
                "box": {
                    "id": "obj-72",
                    "linecount": 6,
                    "maxclass": "comment",
                    "numinlets": 1,
                    "numoutlets": 0,
                    "patching_rect": [ 365.0, 513.0, 151.0, 87.0 ],
                    "text": "Not hearing anything? Did you double-click on the noteout to choose an output? FYI, you need to do this every time you open the patch."
                }
            },
            {
                "box": {
                    "id": "obj-71",
                    "linecount": 5,
                    "maxclass": "comment",
                    "numinlets": 1,
                    "numoutlets": 0,
                    "patching_rect": [ 163.0, 500.0, 150.0, 74.0 ],
                    "text": "This noteout object sends MIDI data out of the patch to either the built-in synth of your OS or to a DAW like Ableton Live"
                }
            },
            {
                "box": {
                    "id": "obj-70",
                    "linecount": 2,
                    "maxclass": "comment",
                    "numinlets": 1,
                    "numoutlets": 0,
                    "patching_rect": [ 163.0, 458.0, 149.0, 33.0 ],
                    "text": "Makenote arguments are velocity, duration, channel"
                }
            },
            {
                "box": {
                    "id": "obj-1",
                    "maxclass": "newobj",
                    "numinlets": 3,
                    "numoutlets": 0,
                    "patching_rect": [ 314.0, 513.0, 49.0, 22.0 ],
                    "text": "noteout"
                }
            },
            {
                "box": {
                    "id": "obj-10",
                    "maxclass": "newobj",
                    "numinlets": 4,
                    "numoutlets": 3,
                    "outlettype": [ "float", "float", "float" ],
                    "patching_rect": [ 314.0, 463.0, 125.0, 22.0 ],
                    "text": "makenote 127 100 10"
                }
            },
            {
                "box": {
                    "bgcolor": [ 0.396078431372549, 0.396078431372549, 0.396078431372549, 0.0 ],
                    "bubble": 1,
                    "bubble_bgcolor": [ 1.0, 1.0, 1.0, 1.0 ],
                    "id": "obj-29",
                    "linecount": 6,
                    "maxclass": "comment",
                    "numinlets": 1,
                    "numoutlets": 0,
                    "patching_rect": [ 924.0, 305.0, 266.0, 91.0 ],
                    "text": "umenu,\na GUI-based object that allows the developer of the patch to present choices the user can click on in an intuitive pull-down menu. You can add choices to the menu in the Inspector window.",
                    "textcolor": [ 0.0, 0.0, 0.0, 1.0 ]
                }
            },
            {
                "box": {
                    "id": "obj-2",
                    "items": "<empty>",
                    "maxclass": "umenu",
                    "numinlets": 1,
                    "numoutlets": 3,
                    "outlettype": [ "int", "", "" ],
                    "parameter_enable": 0,
                    "patching_rect": [ 821.0, 339.0, 100.0, 22.0 ]
                }
            },
            {
                "box": {
                    "id": "obj-36",
                    "maxclass": "comment",
                    "numinlets": 1,
                    "numoutlets": 0,
                    "patching_rect": [ 407.0, 55.0, 112.0, 20.0 ],
                    "text": "Dotted note values"
                }
            },
            {
                "box": {
                    "id": "obj-35",
                    "maxclass": "comment",
                    "numinlets": 1,
                    "numoutlets": 0,
                    "patching_rect": [ 407.0, 109.0, 112.0, 20.0 ],
                    "text": "Triplet note values"
                }
            },
            {
                "box": {
                    "id": "obj-34",
                    "maxclass": "comment",
                    "numinlets": 1,
                    "numoutlets": 0,
                    "patching_rect": [ 286.0, 109.0, 116.0, 20.0 ],
                    "text": "Regular note values"
                }
            },
            {
                "box": {
                    "id": "obj-33",
                    "maxclass": "comment",
                    "numinlets": 1,
                    "numoutlets": 0,
                    "patching_rect": [ 286.0, 54.0, 91.0, 20.0 ],
                    "text": "All note values"
                }
            },
            {
                "box": {
                    "id": "obj-31",
                    "items": [ "1nt", ",", "2nt", ",", "4nt", ",", "8nt", ",", "16nt", ",", "32nt", ",", "64nt", ",", "128nt" ],
                    "maxclass": "umenu",
                    "numinlets": 1,
                    "numoutlets": 3,
                    "outlettype": [ "int", "", "" ],
                    "parameter_enable": 0,
                    "patching_rect": [ 407.0, 131.0, 100.0, 22.0 ]
                }
            },
            {
                "box": {
                    "id": "obj-27",
                    "items": [ "1n", ",", "2n", ",", "4n", ",", "8n", ",", "16n", ",", "32n", ",", "64n", ",", "128n" ],
                    "maxclass": "umenu",
                    "numinlets": 1,
                    "numoutlets": 3,
                    "outlettype": [ "int", "", "" ],
                    "parameter_enable": 0,
                    "patching_rect": [ 286.0, 131.0, 100.0, 22.0 ]
                }
            },
            {
                "box": {
                    "id": "obj-30",
                    "items": [ "1nd", ",", "2nd", ",", "4nd", ",", "8nd", ",", "16nd", ",", "32nd", ",", "64nd", ",", "128nd" ],
                    "maxclass": "umenu",
                    "numinlets": 1,
                    "numoutlets": 3,
                    "outlettype": [ "int", "", "" ],
                    "parameter_enable": 0,
                    "patching_rect": [ 407.0, 77.0, 100.0, 22.0 ]
                }
            },
            {
                "box": {
                    "fontface": 0,
                    "fontname": "Arial",
                    "fontsize": 13.0,
                    "id": "obj-129",
                    "items": [ "1nd", ",", "1n", ",", "1nt", ",", "2nd", ",", "2n", ",", "2nt", ",", "4nd", ",", "4n", ",", "4nt", ",", "8nd", ",", "8n", ",", "8nt", ",", "16nd", ",", "16n", ",", "16nt", ",", "32nd", ",", "32n", ",", "32nt", ",", "64nd", ",", "64n", ",", "64nt", ",", "128nd", ",", "128n", ",", "128nt" ],
                    "maxclass": "umenu",
                    "numinlets": 1,
                    "numoutlets": 3,
                    "outlettype": [ "int", "", "" ],
                    "parameter_enable": 0,
                    "patching_rect": [ 286.0, 76.0, 100.0, 23.0 ]
                }
            },
            {
                "box": {
                    "bubble": 1,
                    "bubble_bgcolor": [ 1.0, 1.0, 1.0, 1.0 ],
                    "id": "obj-57",
                    "linecount": 3,
                    "maxclass": "comment",
                    "numinlets": 1,
                    "numoutlets": 0,
                    "patching_rect": [ 1083.0, 253.0, 152.0, 51.0 ],
                    "text": "transport,\nan object that controls Max's internal transport",
                    "textcolor": [ 0.0, 0.0, 0.0, 1.0 ]
                }
            },
            {
                "box": {
                    "bubble": 1,
                    "bubble_bgcolor": [ 1.0, 1.0, 1.0, 1.0 ],
                    "id": "obj-56",
                    "linecount": 4,
                    "maxclass": "comment",
                    "numinlets": 1,
                    "numoutlets": 0,
                    "patching_rect": [ 1059.0, 188.0, 172.0, 64.0 ],
                    "text": "metro,\na metronome object that sends out bangs according to its internal argument",
                    "textcolor": [ 0.0, 0.0, 0.0, 1.0 ]
                }
            },
            {
                "box": {
                    "id": "obj-55",
                    "maxclass": "toggle",
                    "numinlets": 1,
                    "numoutlets": 1,
                    "outlettype": [ "int" ],
                    "parameter_enable": 0,
                    "patching_rect": [ 974.0, 236.0, 24.0, 24.0 ]
                }
            },
            {
                "box": {
                    "id": "obj-50",
                    "maxclass": "newobj",
                    "numinlets": 2,
                    "numoutlets": 9,
                    "outlettype": [ "int", "int", "float", "float", "float", "", "int", "float", "" ],
                    "patching_rect": [ 978.0, 274.0, 103.0, 22.0 ],
                    "text": "transport"
                }
            },
            {
                "box": {
                    "id": "obj-53",
                    "maxclass": "newobj",
                    "numinlets": 2,
                    "numoutlets": 1,
                    "outlettype": [ "bang" ],
                    "patching_rect": [ 1018.0, 209.0, 39.0, 22.0 ],
                    "text": "metro"
                }
            },
            {
                "box": {
                    "bubble": 1,
                    "bubble_bgcolor": [ 1.0, 1.0, 1.0, 1.0 ],
                    "bubbleside": 3,
                    "id": "obj-49",
                    "linecount": 5,
                    "maxclass": "comment",
                    "numinlets": 1,
                    "numoutlets": 0,
                    "patching_rect": [ 816.0, 209.0, 156.0, 78.0 ],
                    "text": "toggle,\na GUI-based object that can be used to turn on or off processes (it outputs either a 0 or a 1)",
                    "textcolor": [ 0.0, 0.0, 0.0, 1.0 ]
                }
            },
            {
                "box": {
                    "id": "obj-48",
                    "maxclass": "newobj",
                    "numinlets": 2,
                    "numoutlets": 9,
                    "outlettype": [ "int", "int", "float", "float", "float", "", "int", "float", "" ],
                    "patching_rect": [ 236.0, 209.0, 103.0, 22.0 ],
                    "text": "transport"
                }
            },
            {
                "box": {
                    "id": "obj-47",
                    "maxclass": "newobj",
                    "numinlets": 2,
                    "numoutlets": 1,
                    "outlettype": [ "bang" ],
                    "patching_rect": [ 163.0, 209.0, 63.0, 22.0 ],
                    "text": "metro 100"
                }
            },
            {
                "box": {
                    "id": "obj-46",
                    "maxclass": "toggle",
                    "numinlets": 1,
                    "numoutlets": 1,
                    "outlettype": [ "int" ],
                    "parameter_enable": 0,
                    "patching_rect": [ 163.0, 19.0, 24.0, 24.0 ]
                }
            },
            {
                "box": {
                    "id": "obj-8",
                    "maxclass": "number",
                    "numinlets": 1,
                    "numoutlets": 2,
                    "outlettype": [ "", "bang" ],
                    "parameter_enable": 0,
                    "patching_rect": [ 255.0, 402.0, 50.0, 22.0 ]
                }
            },
            {
                "box": {
                    "id": "obj-42",
                    "maxclass": "kslider",
                    "numinlets": 2,
                    "numoutlets": 2,
                    "outlettype": [ "int", "int" ],
                    "parameter_enable": 0,
                    "patching_rect": [ 163.0, 307.0, 336.0, 53.0 ]
                }
            },
            {
                "box": {
                    "id": "obj-44",
                    "maxclass": "button",
                    "numinlets": 1,
                    "numoutlets": 1,
                    "outlettype": [ "bang" ],
                    "parameter_enable": 0,
                    "patching_rect": [ 163.0, 254.0, 24.0, 24.0 ]
                }
            },
            {
                "box": {
                    "bubble": 1,
                    "bubble_bgcolor": [ 1.0, 1.0, 1.0, 1.0 ],
                    "id": "obj-52",
                    "linecount": 6,
                    "maxclass": "comment",
                    "numinlets": 1,
                    "numoutlets": 0,
                    "patching_rect": [ 1060.0, 65.0, 228.0, 91.0 ],
                    "text": "button,\na GUI-based object that allows the user to click and activate other objects with the message 'bang,' which is computer-ese for \"do whatever you were designed to do\"",
                    "textcolor": [ 0.0, 0.0, 0.0, 1.0 ]
                }
            },
            {
                "box": {
                    "id": "obj-51",
                    "maxclass": "button",
                    "numinlets": 1,
                    "numoutlets": 1,
                    "outlettype": [ "bang" ],
                    "parameter_enable": 0,
                    "patching_rect": [ 1033.0, 99.0, 24.0, 24.0 ]
                }
            },
            {
                "box": {
                    "bubble": 1,
                    "bubble_bgcolor": [ 1.0, 1.0, 1.0, 1.0 ],
                    "bubbleside": 3,
                    "id": "obj-14",
                    "linecount": 4,
                    "maxclass": "comment",
                    "numinlets": 1,
                    "numoutlets": 0,
                    "patching_rect": [ 917.0, 141.0, 156.0, 64.0 ],
                    "text": "number,\na GUI-based object that allows users to input an integer",
                    "textcolor": [ 0.0, 0.0, 0.0, 1.0 ]
                }
            },
            {
                "box": {
                    "id": "obj-15",
                    "maxclass": "number",
                    "numinlets": 1,
                    "numoutlets": 2,
                    "outlettype": [ "", "bang" ],
                    "parameter_enable": 0,
                    "patching_rect": [ 1074.0, 158.0, 50.0, 22.0 ]
                }
            },
            {
                "box": {
                    "bubble": 1,
                    "bubble_bgcolor": [ 1.0, 1.0, 1.0, 1.0 ],
                    "bubbleside": 3,
                    "id": "obj-16",
                    "linecount": 7,
                    "maxclass": "comment",
                    "numinlets": 1,
                    "numoutlets": 0,
                    "patching_rect": [ 816.0, 13.0, 158.0, 104.0 ],
                    "text": "kslider,\na GUI-based object that allows users to click on pitches intuitively. You can change the range of this object in the Inspector window.",
                    "textcolor": [ 0.0, 0.0, 0.0, 1.0 ]
                }
            },
            {
                "box": {
                    "id": "obj-17",
                    "maxclass": "comment",
                    "numinlets": 1,
                    "numoutlets": 0,
                    "patching_rect": [ 974.0, 15.0, 293.0, 20.0 ],
                    "text": "More about the objects in this patch (not in the book):"
                }
            },
            {
                "box": {
                    "id": "obj-37",
                    "maxclass": "kslider",
                    "numinlets": 2,
                    "numoutlets": 2,
                    "offset": 60,
                    "outlettype": [ "int", "int" ],
                    "parameter_enable": 0,
                    "patching_rect": [ 974.0, 39.0, 84.0, 53.0 ],
                    "range": 12
                }
            }
        ],
        "lines": [
            {
                "patchline": {
                    "destination": [ "obj-1", 2 ],
                    "source": [ "obj-10", 2 ]
                }
            },
            {
                "patchline": {
                    "destination": [ "obj-1", 1 ],
                    "source": [ "obj-10", 1 ]
                }
            },
            {
                "patchline": {
                    "destination": [ "obj-1", 0 ],
                    "source": [ "obj-10", 0 ]
                }
            },
            {
                "patchline": {
                    "destination": [ "obj-18", 0 ],
                    "source": [ "obj-11", 0 ]
                }
            },
            {
                "patchline": {
                    "destination": [ "obj-47", 1 ],
                    "source": [ "obj-129", 1 ]
                }
            },
            {
                "patchline": {
                    "destination": [ "obj-47", 1 ],
                    "source": [ "obj-27", 1 ]
                }
            },
            {
                "patchline": {
                    "destination": [ "obj-47", 1 ],
                    "source": [ "obj-30", 1 ]
                }
            },
            {
                "patchline": {
                    "destination": [ "obj-47", 1 ],
                    "source": [ "obj-31", 1 ]
                }
            },
            {
                "patchline": {
                    "destination": [ "obj-8", 0 ],
                    "source": [ "obj-42", 0 ]
                }
            },
            {
                "patchline": {
                    "destination": [ "obj-42", 0 ],
                    "source": [ "obj-44", 0 ]
                }
            },
            {
                "patchline": {
                    "destination": [ "obj-47", 0 ],
                    "order": 1,
                    "source": [ "obj-46", 0 ]
                }
            },
            {
                "patchline": {
                    "destination": [ "obj-48", 0 ],
                    "order": 0,
                    "source": [ "obj-46", 0 ]
                }
            },
            {
                "patchline": {
                    "destination": [ "obj-44", 0 ],
                    "source": [ "obj-47", 0 ]
                }
            },
            {
                "patchline": {
                    "destination": [ "obj-11", 0 ],
                    "order": 2,
                    "source": [ "obj-7", 0 ]
                }
            },
            {
                "patchline": {
                    "destination": [ "obj-12", 0 ],
                    "order": 1,
                    "source": [ "obj-7", 0 ]
                }
            },
            {
                "patchline": {
                    "destination": [ "obj-13", 0 ],
                    "order": 0,
                    "source": [ "obj-7", 0 ]
                }
            },
            {
                "patchline": {
                    "destination": [ "obj-10", 0 ],
                    "source": [ "obj-8", 0 ]
                }
            }
        ],
        "autosave": 0
    }
}