{
    "patcher": {
        "fileversion": 1,
        "appversion": {
            "major": 9,
            "minor": 1,
            "revision": 4,
            "architecture": "x64",
            "modernui": 1
        },
        "classnamespace": "box",
        "rect": [ 221.0, 639.0, 1197.0, 383.0 ],
        "subpatcher_template": "BOOK",
        "integercoordinates": 1,
        "boxes": [
            {
                "box": {
                    "bubble": 1,
                    "bubble_bgcolor": [ 1.0, 1.0, 1.0, 1.0 ],
                    "id": "obj-52",
                    "linecount": 6,
                    "maxclass": "comment",
                    "numinlets": 1,
                    "numoutlets": 0,
                    "patching_rect": [ 950.0, 135.0, 228.0, 91.0 ],
                    "presentation_linecount": 6,
                    "text": "button,\na GUI-based object that allows the user to click and activate other objects with the message 'bang,' which is computer-ese for \"do whatever you were designed to do\"",
                    "textcolor": [ 0.0, 0.0, 0.0, 1.0 ]
                }
            },
            {
                "box": {
                    "id": "obj-51",
                    "maxclass": "button",
                    "numinlets": 1,
                    "numoutlets": 1,
                    "outlettype": [ "bang" ],
                    "parameter_enable": 0,
                    "patching_rect": [ 924.0, 168.0, 24.0, 24.0 ]
                }
            },
            {
                "box": {
                    "id": "obj-158",
                    "maxclass": "kslider",
                    "numinlets": 2,
                    "numoutlets": 2,
                    "outlettype": [ "int", "int" ],
                    "parameter_enable": 0,
                    "patching_rect": [ 810.0, 33.0, 336.0, 53.0 ]
                }
            },
            {
                "box": {
                    "bubble": 1,
                    "bubble_bgcolor": [ 1.0, 1.0, 1.0, 1.0 ],
                    "bubbleside": 3,
                    "id": "obj-16",
                    "linecount": 4,
                    "maxclass": "comment",
                    "numinlets": 1,
                    "numoutlets": 0,
                    "patching_rect": [ 652.0, 27.0, 156.0, 64.0 ],
                    "presentation_linecount": 4,
                    "text": "kslider,\na GUI-based object that allows users to click on pitches intuitively",
                    "textcolor": [ 0.0, 0.0, 0.0, 1.0 ]
                }
            },
            {
                "box": {
                    "bubble": 1,
                    "bubble_bgcolor": [ 1.0, 1.0, 1.0, 1.0 ],
                    "id": "obj-6",
                    "linecount": 3,
                    "maxclass": "comment",
                    "numinlets": 1,
                    "numoutlets": 0,
                    "patching_rect": [ 652.0, 160.0, 270.0, 51.0 ],
                    "presentation_linecount": 3,
                    "text": "noteout,\nan object that sends MIDI data out of Max to your computer's built-in synth or elsewhere",
                    "textcolor": [ 0.0, 0.0, 0.0, 1.0 ]
                }
            },
            {
                "box": {
                    "id": "obj-41",
                    "maxclass": "newobj",
                    "numinlets": 3,
                    "numoutlets": 0,
                    "patching_rect": [ 600.0, 173.0, 49.0, 22.0 ],
                    "text": "noteout"
                }
            },
            {
                "box": {
                    "bubble": 1,
                    "bubble_bgcolor": [ 1.0, 1.0, 1.0, 1.0 ],
                    "id": "obj-40",
                    "linecount": 4,
                    "maxclass": "comment",
                    "numinlets": 1,
                    "numoutlets": 0,
                    "patching_rect": [ 662.0, 93.0, 137.0, 64.0 ],
                    "presentation_linecount": 4,
                    "text": "makenote,\nan object that turns numbers into a MIDI signal",
                    "textcolor": [ 0.0, 0.0, 0.0, 1.0 ]
                }
            },
            {
                "box": {
                    "id": "obj-7",
                    "maxclass": "newobj",
                    "numinlets": 3,
                    "numoutlets": 2,
                    "outlettype": [ "float", "float" ],
                    "patching_rect": [ 600.0, 114.0, 61.0, 22.0 ],
                    "text": "makenote"
                }
            },
            {
                "box": {
                    "bubble": 1,
                    "bubble_bgcolor": [ 1.0, 1.0, 1.0, 1.0 ],
                    "bubbleside": 3,
                    "id": "obj-14",
                    "linecount": 4,
                    "maxclass": "comment",
                    "numinlets": 1,
                    "numoutlets": 0,
                    "patching_rect": [ 801.0, 93.0, 156.0, 64.0 ],
                    "presentation_linecount": 4,
                    "text": "number,\na GUI-based object that allows users to input an integer",
                    "textcolor": [ 0.0, 0.0, 0.0, 1.0 ]
                }
            },
            {
                "box": {
                    "id": "obj-15",
                    "maxclass": "number",
                    "numinlets": 1,
                    "numoutlets": 2,
                    "outlettype": [ "", "bang" ],
                    "parameter_enable": 0,
                    "patching_rect": [ 958.0, 110.0, 50.0, 22.0 ]
                }
            },
            {
                "box": {
                    "id": "obj-17",
                    "maxclass": "comment",
                    "numinlets": 1,
                    "numoutlets": 0,
                    "patching_rect": [ 705.0, 11.0, 293.0, 20.0 ],
                    "text": "More about the objects in this patch (not in the book):"
                }
            },
            {
                "box": {
                    "id": "obj-35",
                    "linecount": 6,
                    "maxclass": "comment",
                    "numinlets": 1,
                    "numoutlets": 0,
                    "patching_rect": [ 229.0, 271.0, 151.0, 87.0 ],
                    "presentation_linecount": 6,
                    "text": "Not hearing anything? Did you double-click on the noteout to choose an output? FYI, you need to do this every time you open the patch."
                }
            },
            {
                "box": {
                    "id": "obj-80",
                    "linecount": 5,
                    "maxclass": "comment",
                    "numinlets": 1,
                    "numoutlets": 0,
                    "patching_rect": [ 27.0, 258.0, 150.0, 74.0 ],
                    "presentation_linecount": 5,
                    "text": "This noteout object sends MIDI data out of the patch to either the built-in synth of your OS or to a DAW like Ableton Live"
                }
            },
            {
                "box": {
                    "id": "obj-96",
                    "linecount": 2,
                    "maxclass": "comment",
                    "numinlets": 1,
                    "numoutlets": 0,
                    "patching_rect": [ 27.0, 216.0, 149.0, 33.0 ],
                    "presentation_linecount": 2,
                    "text": "Makenote arguments are velocity, duration, channel"
                }
            },
            {
                "box": {
                    "id": "obj-102",
                    "linecount": 3,
                    "maxclass": "comment",
                    "numinlets": 1,
                    "numoutlets": 0,
                    "patching_rect": [ 59.0, 157.0, 117.0, 47.0 ],
                    "presentation_linecount": 3,
                    "text": "This number object displays what MIDI pitch is being sent"
                }
            },
            {
                "box": {
                    "id": "obj-106",
                    "linecount": 3,
                    "maxclass": "comment",
                    "numinlets": 1,
                    "numoutlets": 0,
                    "patching_rect": [ 49.0, 90.0, 131.0, 47.0 ],
                    "presentation_linecount": 3,
                    "text": "Click this kslider to change the note being played"
                }
            },
            {
                "box": {
                    "id": "obj-107",
                    "linecount": 3,
                    "maxclass": "comment",
                    "numinlets": 1,
                    "numoutlets": 0,
                    "patching_rect": [ 204.0, 22.0, 127.0, 47.0 ],
                    "presentation_linecount": 3,
                    "text": "Click on this button to play beats without a metronome"
                }
            },
            {
                "box": {
                    "id": "obj-112",
                    "maxclass": "newobj",
                    "numinlets": 3,
                    "numoutlets": 0,
                    "patching_rect": [ 178.0, 271.0, 49.0, 22.0 ],
                    "text": "noteout"
                }
            },
            {
                "box": {
                    "id": "obj-113",
                    "maxclass": "newobj",
                    "numinlets": 4,
                    "numoutlets": 3,
                    "outlettype": [ "float", "float", "float" ],
                    "patching_rect": [ 178.0, 221.0, 125.0, 22.0 ],
                    "text": "makenote 127 100 10"
                }
            },
            {
                "box": {
                    "id": "obj-115",
                    "maxclass": "number",
                    "numinlets": 1,
                    "numoutlets": 2,
                    "outlettype": [ "", "bang" ],
                    "parameter_enable": 0,
                    "patching_rect": [ 178.0, 169.0, 50.0, 22.0 ]
                }
            },
            {
                "box": {
                    "id": "obj-117",
                    "maxclass": "kslider",
                    "numinlets": 2,
                    "numoutlets": 2,
                    "outlettype": [ "int", "int" ],
                    "parameter_enable": 0,
                    "patching_rect": [ 178.0, 87.0, 336.0, 53.0 ]
                }
            },
            {
                "box": {
                    "id": "obj-119",
                    "maxclass": "button",
                    "numinlets": 1,
                    "numoutlets": 1,
                    "outlettype": [ "bang" ],
                    "parameter_enable": 0,
                    "patching_rect": [ 178.0, 33.0, 24.0, 24.0 ]
                }
            },
            {
                "box": {
                    "id": "obj-48",
                    "maxclass": "newobj",
                    "numinlets": 1,
                    "numoutlets": 1,
                    "outlettype": [ "" ],
                    "patching_rect": [ 4604.0, 3096.0, 100.0, 22.0 ]
                }
            }
        ],
        "lines": [
            {
                "patchline": {
                    "destination": [ "obj-112", 2 ],
                    "source": [ "obj-113", 2 ]
                }
            },
            {
                "patchline": {
                    "destination": [ "obj-112", 1 ],
                    "source": [ "obj-113", 1 ]
                }
            },
            {
                "patchline": {
                    "destination": [ "obj-112", 0 ],
                    "source": [ "obj-113", 0 ]
                }
            },
            {
                "patchline": {
                    "destination": [ "obj-113", 0 ],
                    "source": [ "obj-115", 0 ]
                }
            },
            {
                "patchline": {
                    "destination": [ "obj-115", 0 ],
                    "source": [ "obj-117", 0 ]
                }
            },
            {
                "patchline": {
                    "destination": [ "obj-117", 0 ],
                    "source": [ "obj-119", 0 ]
                }
            }
        ],
        "parameters": {
            "parameterbanks": {
                "0": {
                    "index": 0,
                    "name": "",
                    "parameters": [ "-", "-", "-", "-", "-", "-", "-", "-" ],
                    "buttons": [ "-", "-", "-", "-", "-", "-", "-", "-" ]
                }
            },
            "inherited_shortname": 1
        },
        "autosave": 0
    }
}